<?xml version="1.0" standalone="no"?>
<!DOCTYPE svg PUBLIC "-//W3C//DTD SVG 20010904//EN"
 "http://www.w3.org/TR/2001/REC-SVG-20010904/DTD/svg10.dtd">
<svg version="1.0" xmlns="http://www.w3.org/2000/svg"
 width="256.000000pt" height="256.000000pt" viewBox="0 0 256.000000 256.000000"
 preserveAspectRatio="xMidYMid meet">
<metadata>
Created by potrace 1.11, written by Peter Selinger 2001-2013
</metadata>
<g transform="translate(0.000000,256.000000) scale(0.100000,-0.100000)"
fill="#000000" stroke="none">
<path d="M1217 2544 c-1 -1 -31 -4 -67 -7 -72 -7 -105 -13 -165 -29 -22 -5
-47 -11 -55 -13 -38 -8 -163 -58 -226 -91 -240 -125 -450 -340 -562 -574 -40
-85 -62 -140 -56 -140 3 0 0 -9 -6 -21 -6 -11 -13 -28 -15 -37 -1 -9 -8 -35
-13 -57 -39 -146 -46 -376 -17 -515 3 -14 8 -40 11 -59 18 -107 102 -299 192
-436 59 -91 237 -268 329 -329 129 -84 300 -161 402 -181 12 -2 30 -6 39 -9
52 -16 178 -29 272 -29 269 0 520 82 743 241 91 65 236 212 294 297 47 70 137
235 127 235 -4 0 -2 6 3 13 10 11 41 100 44 122 1 6 5 20 10 33 43 114 55 388
23 545 -2 12 -7 35 -9 50 -13 67 -68 219 -110 301 -125 244 -337 451 -585 568
-66 31 -162 67 -182 68 -4 1 -26 7 -48 15 -22 8 -40 12 -40 10 0 -2 -15 1 -32
6 -48 13 -290 32 -301 23z m247 -319 c52 -7 176 -49 239 -81 187 -94 347 -254
441 -441 32 -64 75 -194 82 -247 2 -21 7 -43 10 -47 6 -10 -10 -10 -46 0 -36
11 -106 -16 -130 -49 -46 -64 -25 -160 42 -193 43 -21 61 -23 104 -13 l32 7
-9 -48 c-5 -26 -16 -72 -24 -100 -9 -29 -16 -56 -17 -60 -1 -5 -17 -39 -36
-78 -101 -208 -263 -372 -458 -461 -102 -46 -113 -51 -149 -60 -16 -4 -34 -8
-40 -10 -5 -2 -26 -6 -45 -9 -19 -3 -41 -8 -48 -10 -10 -4 -12 3 -6 28 23 98
-32 171 -128 170 -95 -2 -140 -66 -126 -178 2 -11 -1 -19 -7 -18 -5 0 -27 4
-49 7 -58 9 -178 52 -254 90 -133 67 -274 192 -357 316 -40 60 -118 210 -110
210 2 0 -3 16 -11 35 -8 19 -12 35 -9 35 4 0 3 6 -2 13 -8 13 -11 25 -19 76
-2 19 -7 37 -9 41 -3 4 15 5 39 3 96 -11 159 39 159 127 0 63 -29 103 -87 123
-25 8 -46 14 -48 13 -2 -2 -17 -6 -35 -9 -23 -5 -31 -3 -28 6 2 7 6 26 8 42 7
45 38 148 49 163 6 6 7 12 4 12 -4 0 14 41 41 91 95 181 249 332 428 421 64
32 132 59 145 57 3 0 19 5 35 11 17 7 52 14 78 17 l48 5 -7 -28 c-22 -86 34
-164 121 -169 82 -6 140 61 131 152 -3 37 -1 51 7 48 7 -2 29 -7 51 -10z"/>
<path d="M1735 1771 c-27 -15 -99 -54 -160 -86 -60 -32 -114 -61 -120 -65 -9
-6 -235 -126 -317 -168 -16 -7 -28 -17 -28 -21 0 -4 -24 -52 -53 -107 -106
-197 -198 -369 -266 -498 -17 -33 -29 -61 -27 -64 3 -2 29 9 58 26 29 16 94
51 143 77 88 47 179 95 300 160 33 17 87 46 120 64 33 17 65 41 71 54 10 23
94 180 171 322 23 44 48 91 55 105 7 14 36 69 65 122 29 53 53 99 53 102 0 10
-13 5 -65 -23z m-395 -387 c79 -47 79 -161 0 -208 -56 -32 -130 -12 -164 44
-60 103 61 224 164 164z"/>
</g>
</svg>
